<svg id="_6" data-name="6" xmlns="http://www.w3.org/2000/svg" viewBox="0 0 162.26 104.09"><defs><style>.cls-1{fill:#231815;}</style></defs><path class="cls-1" d="M248.19,278.34m162.26,30.17V267.4h-4.09v7H401.2v2.44H403v2.09H401.2v2.44H403v2.09H401.2v2.44H403V288H401.2v2.44H403v2.09h-1v-1.34H387.42v1.92h.82v8.55H384V253.39h-2.5v10.26l-10.86,6.44V285.5h-4.44l-.44-2.12a1.66,1.66,0,1,0-2,0l-.44,2.12h-9.95V288H355v4.83h-1.65v2.48H355v.27h-9.18a77.86,77.86,0,0,1-1.15-8.2h1.63l.58-6.72h-3.72a114.45,114.45,0,0,1-.88-13.77h1.11v-4.29h-1.75v-9h-1.28V243.8h-.81v9.81h-1.28v9h-1.75v4.29h1.11a115.58,115.58,0,0,1-.87,13.77H333l.58,6.72h1.63a83.27,83.27,0,0,1-2.13,12.76v-5H324.9V281.62L323,280v-1.9l-1.26-1.06a3.43,3.43,0,0,0-6.75,0l-1.27,1.06V280l-1.89,1.58V297.7l-2.29-1.87L307,297.9l-.8-24.36h1.25l1.89-9.19h-3.44L305,235.8h.95l1.31-6.42h-2.47l-.38-11.61h-1.32v-7.63h.58v-2.22h-.58v-3.5h-1.38v3.5h-.58v2.22h.58v7.63h-1.31L300,229.38h-2.48l1.32,6.42h1l-.93,28.55h-3.44l1.89,9.19h1.25l-.73,22.29h-5.48v1.65h-5.67v-6.61h-8.55v6.61H272.8v-6.61h-7.51v-2l-5.38-6.28-5.23,6.11v19.8m8.14,0H299.9l2.49-6.38,2.48,6.38h31.42s.76-7.19,3.67-7.19c1.84,0,2.82,2.88,3.29,5v2.2h.38" transform="translate(-248.19 -204.42)"/></svg>