<?xml version="1.0" encoding="iso-8859-1"?>
<!-- Generator: Adobe Illustrator 18.1.1, SVG Export Plug-In . SVG Version: 6.00 Build 0)  -->
<svg version="1.1" id="_x36_" xmlns="http://www.w3.org/2000/svg" xmlns:xlink="http://www.w3.org/1999/xlink" x="0px" y="0px"
	 viewBox="0 0 512 512" style="enable-background:new 0 0 512 512;" xml:space="preserve">
<g>
	<path style="fill:#231815;" d="M512,308.044v-13.167l-7.25-2.479v2.154l-6.297-2.154v2.154l-5.98-2.046V277.26l-2.398-6.534v-4.351
		v-3.19v-1.519h-1.845v1.519h-4.429v-1.519h-1.845v1.519v3.19v4.351l-2.4,6.534v15.374h-7.153
		c0.633-17.771,0.253-32.859-8.938-41.457c-8.289,7.753-9.411,20.789-9.088,36.31h-4.561v-6.203h-9.537v-13.22
		c-1.398-1.118-4.194-2.237-4.194-2.237v-6.431c-8.947,1.118-13.42,6.711-13.42,9.506c0,2.255,0,16.783,0,27.484h-4.256v0.161
		h-0.129v-2.091h1.833v-2.438h-1.833v-2.091h1.833v-2.44h-1.833v-2.089h1.833v-2.439h-1.833v-2.091h1.833v-2.439h-1.833v-2.09h1.833
		v-2.44h-5.157v-6.968h-7.281v6.968h-5.157v2.44h1.833v2.09h-1.833v2.439h1.833v2.091h-1.833v2.439h1.833v2.089h-1.833v2.44h1.833
		v2.091h-1.007v-1.341h-14.611v1.929h0.827v8.546h-4.272v-31.943v-7.517v-8.77h-2.505v10.258l-10.858,6.445v15.408h-4.439
		l-0.438-2.126c0.399-0.302,0.656-0.779,0.656-1.317c0-0.915-0.74-1.655-1.654-1.655c-0.913,0-1.654,0.74-1.654,1.655
		c0,0.539,0.259,1.015,0.656,1.317l-0.438,2.126h-9.951v2.481h1.653v4.826h-1.653v2.48h1.653v0.271h-9.184
		c-0.921-4.866-1.147-8.2-1.147-8.2h1.629l0.581-6.722h-3.724c-0.931-7.443-0.872-13.77-0.872-13.77h1.105v-4.292h-1.745v-5.751
		v-3.214h-1.28v-9.811h-0.815v9.811h-1.279v3.214v5.751h-1.746v4.292h1.105c0,0,0.058,6.327-0.872,13.77h-3.725l0.582,6.722h1.63
		c0,0-0.376,5.539-2.13,12.756v-4.983h-8.211v-13.514l-1.899-1.582v-1.899l-1.265-1.054c0-0.422-0.739-2.848-3.375-2.848
		c-2.637,0-3.374,2.426-3.374,2.848l-1.265,1.054v1.899l-1.899,1.582v16.078l-2.287-1.865l-2.533,2.066l-0.796-24.355h1.25
		l1.887-9.191h-3.436l-0.933-28.554h0.949l1.317-6.416h-2.476l-0.379-11.609h-1.314v-7.631h0.577v-2.225h-0.577v-3.495h-1.384v3.495
		h-0.576v2.225h0.576v7.631h-1.312l-0.379,11.609h-2.477l1.317,6.416h0.95l-0.934,28.554h-3.436l1.887,9.191h1.25l-0.728,22.288
		h-5.481v1.653h-5.669v-6.616h-8.546v6.616h-5.332v-6.616h-7.513v-1.991l-5.376-6.272l-5.236,6.109l-5.236-6.109l-5.375,6.272
		v11.749h-1.991v-22.293h-14.616v-29.68h-3.358v-1.766h3.358v-1.414h-15.552v1.414h3.358v1.766h-3.358v54.458l-0.881-0.719v-2.469
		l0.635,0.517v-1.038l-4.381-3.573l-4.38,3.573v1.038l0.634-0.517v2.469l-3.314,2.704v-29.941l-8.156-2.79l-5.582,2.361v12.392
		h-2.413l-2.486-2.859l-2.488,2.859h-1.738v-25.429l-5.203-1.81l-5.203,1.81v4.524h-3.619h-3.619v-4.524l-5.203-1.81l-5.203,1.81
		v34.638h-2.435v-14.44l-9.926-5.188v5.64H137.1v-28.731h-2.105v-3.706h-1.825v-2.751h-2.244v-9.176h-1.123v9.176h-2.245v2.751
		h-1.824v3.706h-2.105v23.646c-0.199-0.452-0.415-0.883-0.652-1.286h-5.138c-1.495,2.531-2.186,6.173-2.507,9.401v-1.495h-0.916
		v-1.019h0.916v-1.832h-0.916v-1.018h0.916v-1.833h-0.916v-1.017h0.916v-1.832h-0.916v-1.018h0.916v-1.833h-0.916v-1.017h0.916
		v-1.832h-1.796v-3.046h-0.916v-3.664h-1.679v3.664h-3.055v3.046h-2.938v1.832h0.916v1.017h-0.916v1.833h0.916v1.018h-0.916v1.832
		h0.916v1.017h-0.916v1.833h0.916v1.018h-0.916v1.832h0.916v1.019h-0.916v1.832h0.916v0.064h-1.717
		c-0.501-1.418-1.854-2.436-3.445-2.436c-1.591,0-2.944,1.018-3.446,2.436h-2.103v1.625h0.541v11.382l-4.256-2.948l-5.57,3.859
		v0.904c-0.541-2.885-0.966-5.698-1.286-8.243c-0.282-2.241-0.484-4.278-0.616-5.976c-0.036-0.458-0.065-0.89-0.091-1.297h5.744
		l-5.845-4.952c0-1.15,0-2.488,0-3.856h5.845l-5.845-4.953c0-0.735,0-1.405,0-1.969c0-0.557,0-1.013,0-1.328c0-0.143,0-0.258,0-0.34
		l2.676-3.688H74.369l2.677,3.688c0,0.449,0,1.846,0,3.638l-5.845,4.953h5.845c0,1.367,0,2.706,0,3.856l-5.846,4.952h5.744
		c-0.059,0.972-0.149,2.098-0.27,3.343c-0.386,4.024-1.097,9.295-2.208,14.634l-0.81-0.662v-2.469l0.633,0.517v-1.038l-4.38-3.573
		l-4.381,3.573v1.038l0.635-0.517v2.469l-0.745,0.607v-13.385h-1.513v-2.78h-4.722v2.78h-5.557v-14.581h-1.456v-2.183h1.456v-1.455
		h-9.097v1.455h1.455v2.183h-1.455v19.286h-5.094v-16.376v-3.274v-2.547v-1.092v-0.363h-9.461v1.455h2.183v2.547h-2.183v19.65v0.223
		l-3.916-1.991l-3.821,1.942v-7.002h-1.682v-3.09h-5.252v3.09H8.498v4.637h-2.17v2.163h2.17v2.473H6.86l-1.147-0.934l-4.38,3.573
		v0.425H0v8.682h1.967H4.9h3.598H9.46h11.221h1.554h3.821h3.916h1.459h8.002h5.094h8.539h0.558h9.401h2.391h0.745h3.136h1.221h2.178
		h0.958h1.309h1.826v-2.522l0.634,0.517v-1.036l-0.329-0.268l3.234-2.465h0.125l3.725,2.824v2.95h1.626h2.267h3.365h4.256h3.002
		h6.252h0.76h9.347h0.276h8.297h2.132h10.7h0.641h13.526h0.723h25.208h2.117h9.126h1.443h12.295v-2.376l0.179-0.146v2.522h3.135
		h3.136h1.221h3.135h0.881h2.255h13.025h0.272h7.449h7.167h1.991h1.315h17.435h2.473h6.093h1.421h19.547h1.085h3.981h0.687h1.797
		l2.485-6.377l2.484,6.377h0.925h1.56h4.474h1.459h10.698h0.921h5.686h2.525h3.176c0,0,0.756-7.188,3.666-7.188
		c1.84,0,2.819,2.877,3.29,4.989v2.199h0.376H512z M84.109,294.476c0.157,1.099,0.332,2.229,0.526,3.384l-3.773-3.186h3.247V294.476
		z M82.174,267.5l-1.797,1.271l-1.797-1.271H82.174z M78.94,266.624l1.44-0.923l1.437,0.923H78.94z M80.901,287.246l2.181-2.271
		c0.045,0.691,0.104,1.451,0.178,2.271H80.901z M83.307,287.755c0.009,0.097,0.017,0.193,0.028,0.292
		c0.074,0.766,0.158,1.579,0.257,2.426l-2.61-2.718H83.307z M82.326,271.545l-1.949,1.379l-1.948-1.379H82.326z M78.506,270.668
		l1.871-1.324l1.871,1.324H78.506z M82.96,271.67c0,0.97,0,2.021,0,3.08l-2.178-1.54L82.96,271.67z M82.398,274.926h-4.043
		l2.021-1.43L82.398,274.926z M82.514,275.805l-2.137,1.51l-2.137-1.51H82.514z M82.96,276.062c0,1.077,0,2.13,0,3.078l-2.178-1.539
		L82.96,276.062z M82.624,279.476H78.13l2.247-1.589L82.624,279.476z M82.401,280.354l-2.024,1.433l-2.024-1.433H82.401z
		 M82.322,283.735h-3.889l1.945-1.376L82.322,283.735z M82.79,284.613l-2.413,2.514l-2.413-2.514H82.79z M80.782,282.072
		l2.178-1.538c0,0.552,0,1.036,0,1.431c0,0.456,0.014,1.02,0.045,1.68L80.782,282.072z M82.96,270.598l-2.178-1.54l2.178-1.539
		C82.96,268.107,82.96,269.223,82.96,270.598z M79.972,269.058l-2.113,1.494c0-0.617,0-1.183,0-1.67c0-0.552,0-1.004,0-1.318
		L79.972,269.058z M79.972,273.21l-2.113,1.494c0-0.52,0-1.039,0-1.548c0-0.492,0-0.975,0-1.44L79.972,273.21z M79.972,277.601
		l-2.113,1.494c0-0.922,0-1.944,0-2.988L79.972,277.601z M79.972,282.072l-2.157,1.526c0.03-0.64,0.044-1.188,0.044-1.633
		c0-0.384,0-0.853,0-1.386L79.972,282.072z M79.853,287.246h-2.295c0.04-0.438,0.076-0.86,0.106-1.263
		c0.025-0.327,0.048-0.644,0.068-0.946L79.853,287.246z M79.773,287.755l-2.537,2.643c0.106-0.928,0.198-1.813,0.276-2.643H79.773z
		 M80.377,287.792l3.303,3.441c0.009,0.073,0.017,0.144,0.028,0.218l-3.212,2.713h-0.237l-3.154-2.664
		c0.014-0.114,0.029-0.229,0.042-0.343L80.377,287.792z M84.064,294.164h-2.849l2.56-2.161
		C83.864,292.703,83.959,293.426,84.064,294.164z M87.263,283.735h-3.44c-0.001-0.035-0.003-0.069-0.005-0.102
		c-0.031-0.663-0.046-1.226-0.046-1.668c0-0.335,0-0.738,0-1.189L87.263,283.735z M87.263,274.926h-3.491c0-0.595,0-1.189,0-1.77
		c0-0.405,0-0.801,0-1.188L87.263,274.926z M84.777,264.404l-1.61,2.22h-0.481l-1.87-1.202l1.59-1.018H84.777z M81.536,264.404
		l-1.155,0.74l-1.153-0.74H81.536z M76.04,264.404h2.32l1.586,1.018l-1.875,1.202h-0.42L76.04,264.404z M73.555,274.926l3.492-2.957
		c0,0.939,0,1.947,0,2.957H73.555z M73.555,283.735l3.492-2.958c0,0.451,0,0.853,0,1.189c0,0.441-0.016,1.004-0.047,1.668
		c-0.002,0.034-0.004,0.068-0.005,0.102H73.555z M77.036,292.05l2.502,2.113h-2.785C76.855,293.441,76.95,292.736,77.036,292.05z
		 M76.681,294.674h3.212l-3.699,3.125C76.372,296.734,76.534,295.689,76.681,294.674z M76.725,304.432l-1.551-1.266
		c0.064-0.298,0.13-0.597,0.191-0.895h4.194L76.725,304.432z M75.467,301.762c0.191-0.962,0.371-1.918,0.538-2.862l3.777,2.862
		H75.467z M80.39,301.637l-4.229-3.204l4.215-3.561l4.216,3.562L80.39,301.637z M84.807,298.857
		c0.168,0.959,0.349,1.928,0.544,2.904h-4.355L84.807,298.857z M81.225,302.271h4.108l-1.155,0.628v1.611L81.225,302.271z
		 M114.415,285.242h0.883c-0.031,0.345-0.059,0.684-0.082,1.017h-0.801V285.242z M114.415,288.092h0.697
		c-0.014,0.356-0.024,0.697-0.033,1.018h-0.664V288.092z M114.415,290.943h0.64c0,0.146,0,0.284,0,0.404c0,0.161,0,0.368,0,0.614
		h-0.64V290.943z M114.415,293.793h0.64c0,0.321,0,0.66,0,1.018h-0.64V293.793z M114.415,296.643h0.64c0,0.334,0,0.674,0,1.019
		h-0.64V296.643z M114.415,299.493h0.64c0,0.341,0,0.681,0,1.02h-0.64V299.493z M114.415,302.344h0.64c0,0.347,0,0.688,0,1.018
		h-0.64V302.344z M114.415,306.212v-1.019h0.64c0,0.368,0,0.709,0,1.019H114.415z"/>
</g>
</svg>
