<svg id="_6" data-name="6" xmlns="http://www.w3.org/2000/svg" viewBox="0 0 512 105.99"><defs><style>.cls-1{fill:#231815;}</style></defs><path class="cls-1" d="M512,106V92.83l-7.25-2.48V92.5l-6.3-2.15V92.5l-6-2V75.21l-2.4-6.53V59.62h-1.84v1.52H483.8V59.62H482v9.06l-2.4,6.53V90.59H472.4c.64-17.78.26-32.86-8.93-41.46-8.29,7.75-9.42,20.79-9.09,36.31h-4.56v-6.2h-9.54V66a21.26,21.26,0,0,0-4.19-2.24V57.35c-8.95,1.12-13.42,6.71-13.42,9.5V94.34h-4.26v.16h-.13V92.41h1.83V90h-1.83V87.88h1.83V85.44h-1.83V83.35h1.83V80.91h-1.83V78.82h1.83V76.38h-1.83V74.29h1.83V71.85H415v-7h-7.29v7h-5.15v2.44h1.83v2.09h-1.83v2.44h1.83v2.09h-1.83v2.44h1.83v2.09h-1.83v2.44h1.83V90h-1V88.63H388.73v1.93h.83V99.1h-4.27V50.87h-2.51V61.13l-10.86,6.45V83h-4.43l-.44-2.12a1.65,1.65,0,1,0-2.65-1.32,1.67,1.67,0,0,0,.65,1.32L364.61,83h-9.95v2.49h1.66v4.82h-1.66v2.48h1.66V93h-9.19a75.56,75.56,0,0,1-1.14-8.2h1.62l.59-6.72h-3.73a115.49,115.49,0,0,1-.87-13.77h1.1V60.06H343v-9h-1.28V41.28h-.82v9.81h-1.27v9h-1.75v4.29h1.1a115.49,115.49,0,0,1-.87,13.77h-3.72l.58,6.72h1.63a84.8,84.8,0,0,1-2.13,12.76v-5h-8.21V79.1l-1.9-1.58v-1.9l-1.27-1.05a3.42,3.42,0,0,0-6.74,0L315,75.62v1.9l-1.9,1.58V95.18l-2.29-1.87-2.53,2.07L307.53,71h1.25l1.88-9.2h-3.43l-.94-28.55h.95l1.32-6.42h-2.48l-.38-11.6h-1.31V7.62H305V5.4h-.58V1.9H303V5.4h-.58V7.62H303v7.64h-1.32l-.37,11.6h-2.48l1.32,6.42h.95l-.94,28.55h-3.43l1.88,9.2h1.25l-.73,22.28h-5.48V95H288V88.35h-8.54V95h-5.33V88.35H266.6v-2l-5.37-6.27L256,86.2l-5.23-6.11-5.38,6.27V98.11h-2V75.82H228.77V46.14h-3.35V44.37h3.35V43H213.22v1.41h3.36v1.77h-3.36v54.45l-.88-.72V97.41l.64.51v-1l-4.39-3.57-4.38,3.57v1l.64-.51v2.46l-3.32,2.71V72.64l-8.15-2.79-5.58,2.36V84.6h-2.42l-2.48-2.86-2.49,2.86h-1.74V59.17l-5.2-1.81-5.2,1.81V63.7H161V59.17l-5.21-1.81-5.2,1.81V93.81h-2.43V79.37l-9.93-5.19v5.64H137.1V51.09H135V47.38h-1.83V44.63h-2.24V35.46H129.8v9.17h-2.24v2.75h-1.83v3.71h-2.1V74.74a12.94,12.94,0,0,0-.65-1.29h-5.14c-1.5,2.53-2.19,6.17-2.51,9.4V81.36h-.91v-1h.91V78.51h-.91v-1h.91V75.65h-.91v-1h.91V72.81h-.91v-1h.91V70h-.91v-1h.91V67.11h-1.79v-3h-.92V60.4h-1.68v3.66h-3v3H105v1.83h.91v1H105v1.84h.91v1H105v1.83h.91v1H105v1.84h.91v1H105v1.83h.91v1H105v1.83h.91v.06h-1.71a3.66,3.66,0,0,0-6.89,0H95.15v1.63h.54V96.26l-4.25-3-5.57,3.86v.9c-.54-2.88-1-5.69-1.29-8.24-.28-2.24-.48-4.28-.61-6,0-.46-.07-.89-.09-1.3h5.74l-5.85-5V73.75h5.85l-5.85-5V65.16l2.68-3.69H74.37l2.68,3.69V68.8l-5.85,5h5.85v3.86l-5.85,5h5.74c0,1-.14,2.1-.27,3.34a138,138,0,0,1-2.2,14.64l-.81-.67V97.41l.63.51v-1l-4.38-3.57-4.38,3.57v1l.63-.51v2.46l-.74.61V87.1H63.91V84.32H59.18V87.1H53.63V72.52H52.17V70.33h1.46V68.88h-9.1v1.45H46v2.19H44.53V91.8H39.44V68.15H30V69.6h2.19v2.55H30V92l-3.91-2-3.82,2V85H20.56V81.88H15.3V85H8.5v4.64H6.33v2.16H8.5v2.48H6.86l-1.15-.94L1.33,96.89v.42H0V106H76.79v-2.52l.63.52v-1l-.33-.27,3.24-2.46h.12L84.18,103V106H201.54v-2.37l.18-.15V106h99.5l2.48-6.37,2.49,6.37h31.42s.76-7.19,3.67-7.19c1.84,0,2.81,2.88,3.29,5V106H512ZM84.11,92.43c.16,1.1.33,2.23.53,3.38l-3.78-3.18h3.25Zm-1.94-27-1.79,1.27-1.8-1.27Zm-3.23-.87,1.44-.93,1.44.93Zm2,20.62,2.18-2.27c0,.69.11,1.45.18,2.27Zm2.41.51c0,.09,0,.19,0,.29.08.76.16,1.58.26,2.42L81,85.71Zm-1-16.21-2,1.38L78.43,69.5Zm-3.82-.88,1.87-1.32,1.87,1.32Zm4.45,1V72.7l-2.18-1.54Zm-.56,3.26h-4l2-1.43Zm.11.88-2.13,1.51-2.14-1.51ZM83,74v3.08l-2.18-1.54Zm-.34,3.42H78.13l2.25-1.59Zm-.22.88-2,1.43-2-1.43Zm-.08,3.38H78.43l1.95-1.38Zm.47.87-2.41,2.52L78,82.56Zm-2-2.54L83,78.49v1.43c0,.45,0,1,0,1.68ZM83,68.55,80.78,67,83,65.47ZM80,67,77.86,68.5v-3Zm0,4.15-2.11,1.5v-3Zm0,4.39-2.11,1.5v-3ZM80,80l-2.15,1.53c0-.64,0-1.19,0-1.63V78.53Zm-.12,5.18H77.56c0-.44.07-.86.1-1.27s0-.64.07-.94Zm-.08.51-2.53,2.64q.15-1.39.27-2.64Zm.61,0,3.3,3.44,0,.22L80.5,92.12h-.24l-3.15-2.67c0-.11,0-.23,0-.34Zm3.68,6.38H81.22L83.78,90C83.86,90.65,84,91.38,84.06,92.12Zm3.2-10.43H83.82v-.11c0-.66,0-1.22,0-1.66V78.73Zm0-8.81H83.77v-3ZM84.78,62.36l-1.61,2.22h-.48l-1.87-1.21,1.59-1Zm-3.24,0-1.16.74-1.15-.74Zm-5.5,0h2.32l1.59,1-1.88,1.21h-.42ZM73.56,72.88l3.49-3v3Zm0,8.81,3.49-3v1.19c0,.44,0,1,0,1.67v.1ZM77,90l2.5,2.11H76.75C76.86,91.39,77,90.69,77,90Zm-.36,2.63h3.21l-3.7,3.12C76.37,94.69,76.53,93.64,76.68,92.63Zm0,9.75-1.55-1.26c.07-.3.13-.6.19-.9h4.2Zm-1.25-2.67c.19-1,.37-1.91.54-2.86l3.77,2.86Zm4.92-.12-4.23-3.21,4.22-3.56,4.21,3.57Zm4.42-2.78c.16,1,.35,1.93.54,2.9H81Zm-3.59,3.41h4.11l-1.15.63v1.61Zm33.2-17h.88c0,.35-.06.69-.08,1h-.8Zm0,2.85h.69q0,.54,0,1h-.66Zm0,2.85h.64v1h-.64Zm0,2.85h.64v1h-.64Zm0,2.85h.64v1h-.64Zm0,2.85h.64v1h-.64Zm0,2.86h.64v1h-.64Zm0,3.86v-1h.64v1Z"/></svg>